# xmcd
#
# Track frame offsets:
#	150
#	21185
#	34950
#	49027
#	64010
#	80867
#	98257
#	113770
#	127445
#	140202
#	161877
#	184447
#	195275
#	212472
#	232892
#	259195
#
# Disc length: 3468 seconds
#
# Revision: 1
# Processed by: cddbd v1.5.1PL2 Copyright (c) Steve Scherf et al.
# Submitted via: audiograbber 1.83.01
#
DISCID=e70d8a10
DTITLE=Sound Choice - SC8342
DYEAR=1900
DGENRE=
TTITLE0=Russell, Leon - Roll In My Sewwt Baby's Arms
TTITLE1=Statler Brothers - I'll Go To My Grave Loving You
TTITLE2=Haggard, Merle - Fightin' Side Of Me
TTITLE3=Stevens, Ray - Misty
TTITLE4=Denver, John - I'm Sorry
TTITLE5=Oak Ridge Boys - I'll Be True To You
TTITLE6=Jones, George - A Good Year For The Roses
TTITLE7=Milsap, Ronnie - Please Don't Tell Me How The Story Ends
TTITLE8=Goldsboro, Bobby - Watching Scotty Grow
TTITLE9=Jennings, Waylon - I've Always Been Crazy
TTITLE10=Rabbitt, Eddie - Suspicions
TTITLE11=Tillis, Mel - I Ain't Never
TTITLE12=Rogers, Kenny - Daytime Friends
TTITLE13=Bellamy Brothers - You Ain't Just Whistlin' Dixie
TTITLE14=Moe Bandy - I Cheated Me Right Out Of You
TTITLE15=xx - Data Track
EXTD=
EXTT0=
EXTT1=
EXTT2=
EXTT3=
EXTT4=
EXTT5=
EXTT6=
EXTT7=
EXTT8=
EXTT9=
EXTT10=
EXTT11=
EXTT12=
EXTT13=
EXTT14=
EXTT15=
PLAYORDER=
